<?xml version="1.0" encoding="UTF-8"?><svg xmlns="http://www.w3.org/2000/svg" viewBox="0 0 1618.05 2167.79"><g id="a"/><g id="b"><g id="c"><g><path d="M512.68,1412.25c40.95,43.2,39.34,111.35-3.59,152.57-141.47,135.82-282.95,271.65-424.42,407.47-26.37,25.31-70.23,6.91-70.64-29.64C9.51,1546.26,5.01,1149.87,.5,753.48,276.85,502.7,553.2,251.91,829.55,1.13V289.65c-210.61,196-421.22,392-631.83,588.01,2.42,226.01,4.84,452.03,7.26,678.04,50.69-49.37,101.38-98.75,152.08-148.12,43.24-42.12,112.58-40.73,154.11,3.08l1.51,1.59Z" fill="#999" stroke="#999" stroke-miterlimit="10"/><path d="M1164.66,789.02c-40.46-42.66-39-109.95,3.26-150.83,124.22-120.15,248.45-240.29,372.67-360.44,28.81-27.87,76.97-7.45,76.97,32.64V1440.18c-262.67,242.16-525.33,484.31-788,726.47v-255.36c199.67-185.08,399.33-370.16,599-555.24V682.1c-36.27,36.6-72.54,73.21-108.81,109.81-42.6,42.99-112.31,42.22-153.95-1.69l-1.14-1.21Z" fill="#29abe2" stroke="#29abe2" stroke-miterlimit="10"/><circle cx="834.05" cy="1101.13" r="380.5" stroke="#000" stroke-miterlimit="10"/></g></g></g></svg>